<svg width="159" height="31" viewBox="0 0 159 31" fill="none" xmlns="http://www.w3.org/2000/svg">
<path fill-rule="evenodd" clip-rule="evenodd" d="M141.367 0.5H126.972V1.6265H130.402L139.738 16.8967L131.034 29.3747H126.786V30.5H137.937V29.3747H132.608L140.595 18.0544L147.684 29.3747H143.033V30.5H157.786V29.3747H152.961L143.16 14.2678L151.834 1.6265H156.123V0.5H145.197V1.6265H150.295L142.335 13.0729L135.617 1.6265H141.367V0.5ZM6.61231 22.635C6.46628 22.1251 6.40285 21.6752 6.40285 21.2925H0.785706C0.785706 22.1345 0.926942 23.093 1.20941 24.1729C1.49787 25.2445 2.07239 26.2513 2.92221 27.1804C3.7792 28.1213 5.00006 28.8973 6.5764 29.5426C8.14676 30.1808 10.2043 30.4999 12.7489 30.4999C13.1762 30.4999 13.7232 30.4634 14.4234 30.4046C15.1344 30.3363 15.8896 30.2067 16.7095 30.0018C17.5246 29.7958 18.3553 29.5014 19.1812 29.0975C20.019 28.703 20.7767 28.1731 21.4649 27.5066C22.1627 26.8436 22.7097 26.0158 23.1466 25.0325C23.5715 24.0516 23.7857 22.8693 23.7857 21.4833C23.7857 20.2574 23.5894 19.2177 23.1741 18.3804C22.7815 17.5373 22.2441 16.8319 21.5606 16.2678C20.8892 15.705 20.1088 15.2598 19.2266 14.9254C18.3385 14.5933 17.4121 14.3119 16.457 14.0846L9.63214 12.4337C9.35325 12.356 9.02769 12.2641 8.67939 12.1652C8.3263 12.0616 8.00911 11.9097 7.7015 11.7059C7.41065 11.501 7.15212 11.2243 6.96061 10.8781C6.76192 10.5366 6.67215 10.0974 6.67215 9.55923C6.67215 8.94101 6.81459 8.42759 7.12579 8.00366C7.41185 7.58327 7.79846 7.2406 8.26406 6.98624C8.74163 6.73542 9.26109 6.54348 9.84997 6.4269C10.4305 6.31738 10.9978 6.25615 11.5424 6.25615C12.8159 6.25615 13.8285 6.41983 14.5718 6.73895C15.2984 7.0569 15.8693 7.43136 16.2607 7.86942C16.6509 8.30394 16.9058 8.75731 17.0195 9.22716C17.1344 9.7029 17.2218 10.0974 17.2781 10.4H22.8856C22.8856 9.55923 22.7145 8.61482 22.3853 7.58327C22.0442 6.54348 21.4649 5.5814 20.6318 4.68645C19.794 3.79385 18.6844 3.0355 17.2781 2.42081C15.8693 1.80847 14.0954 1.49995 11.9733 1.49995C10.4652 1.49995 9.15337 1.64243 8.03425 1.92387C6.91273 2.20296 5.9552 2.57154 5.14967 3.01077C4.34056 3.46767 3.69183 3.99051 3.17835 4.59107C2.67444 5.18692 2.27587 5.80043 1.98981 6.4269C1.70135 7.0569 1.50386 7.67512 1.38297 8.28863C1.27525 8.89744 1.20941 9.46738 1.20941 9.97845C1.20941 11.4834 1.46556 12.7128 1.97185 13.6348C2.48174 14.571 3.13885 15.3317 3.95994 15.9063C4.77863 16.4763 5.7218 16.9226 6.78586 17.2264C7.85112 17.5373 8.96306 17.8152 10.0941 18.0719L13.0996 18.7584C13.8333 18.9409 14.5072 19.1223 15.1344 19.2989C15.7556 19.4755 16.2906 19.6899 16.7538 19.9301C17.2062 20.1738 17.545 20.4682 17.8083 20.8321C18.0525 21.1924 18.1698 21.6387 18.1698 22.1722C18.1698 22.9176 17.995 23.5158 17.6419 23.9774C17.2948 24.4402 16.8436 24.7982 16.2906 25.0525C15.7197 25.308 15.0997 25.4882 14.4078 25.5907C13.7184 25.686 13.0302 25.7402 12.3264 25.7402C11.0505 25.7402 10.0199 25.5836 9.24792 25.2645C8.45796 24.9465 7.86788 24.5556 7.45015 24.0928C7.042 23.6347 6.75354 23.1484 6.61231 22.635ZM51.0006 24.8041C51.522 23.4967 51.7856 21.9341 51.7856 20.1081V1.49995H45.9771V20.3435C45.9771 22.0354 45.5489 23.3289 44.6959 24.2413C43.8499 25.1549 42.4329 25.6117 40.4645 25.6117C39.7968 25.6117 39.1775 25.4975 38.5789 25.2842C37.9815 25.0628 37.4635 24.7307 37.0238 24.2832C36.5795 23.8358 36.2307 23.2625 35.9763 22.5715C35.7265 21.8805 35.6022 21.0461 35.6022 20.0766V1.49995H29.7856V20.4565C29.8305 21.8385 30.017 23.0923 30.3324 24.2087C30.6467 25.3203 31.1819 26.3015 31.914 27.1486C32.5218 27.8466 33.1964 28.399 33.9469 28.8173C34.6824 29.238 35.4502 29.5852 36.2307 29.8462C36.9985 30.0933 37.7559 30.2716 38.503 30.3624C39.2535 30.451 39.9453 30.4999 40.575 30.4999C42.297 30.4999 43.8499 30.2949 45.2312 29.901C46.6125 29.5048 47.7947 28.8802 48.764 28.0342C49.7424 27.1929 50.4872 26.1127 51.0006 24.8041ZM65.954 30.4999H59.7856V1.49995H80.7856V6.54875H65.954V13.5228H78.9362V18.4386H65.954V30.4999ZM86.7856 30.4999H92.954V18.4386H105.937V13.5228H92.954V6.54875H107.786V1.49995H86.7856V30.4999ZM116.288 30.4999H109.786L116.278 1.49995H122.786L116.288 30.4999Z" fill="#231F20"/>
<path d="M126.972 0.5V0H126.472V0.5H126.972ZM141.367 0.5H141.867V0H141.367V0.5ZM126.972 1.6265H126.472V2.1265H126.972V1.6265ZM130.402 1.6265L130.829 1.3657L130.683 1.1265H130.402V1.6265ZM139.738 16.8967L140.148 17.1828L140.335 16.9147L140.164 16.6359L139.738 16.8967ZM131.034 29.3747V29.8747H131.294L131.444 29.6608L131.034 29.3747ZM126.786 29.3747V28.8747H126.286V29.3747H126.786ZM126.786 30.5H126.286V31H126.786V30.5ZM137.937 30.5V31H138.437V30.5H137.937ZM137.937 29.3747H138.437V28.8747H137.937V29.3747ZM132.608 29.3747L132.199 29.0864L131.643 29.8747H132.608V29.3747ZM140.595 18.0544L141.019 17.7891L140.62 17.152L140.186 17.7662L140.595 18.0544ZM147.684 29.3747V29.8747H148.587L148.108 29.1093L147.684 29.3747ZM143.033 29.3747V28.8747H142.533V29.3747H143.033ZM143.033 30.5H142.533V31H143.033V30.5ZM157.786 30.5V31H158.286V30.5H157.786ZM157.786 29.3747H158.286V28.8747H157.786V29.3747ZM152.961 29.3747L152.542 29.6468L152.69 29.8747H152.961V29.3747ZM143.16 14.2678L142.748 13.9849L142.559 14.26L142.74 14.54L143.16 14.2678ZM151.834 1.6265V1.1265H151.571L151.422 1.34361L151.834 1.6265ZM156.123 1.6265V2.1265H156.623V1.6265H156.123ZM156.123 0.5H156.623V0H156.123V0.5ZM145.197 0.5V0H144.697V0.5H145.197ZM145.197 1.6265H144.697V2.1265H145.197V1.6265ZM150.295 1.6265L150.705 1.91195L151.252 1.1265H150.295V1.6265ZM142.335 13.0729L141.904 13.326L142.3 13.9999L142.746 13.3583L142.335 13.0729ZM135.617 1.6265V1.1265H134.744L135.186 1.8796L135.617 1.6265ZM141.367 1.6265V2.1265H141.867V1.6265H141.367ZM6.40285 21.2925H6.90285V20.7925H6.40285V21.2925ZM6.61231 22.635L7.09443 22.5023L7.09299 22.4973L6.61231 22.635ZM0.785706 21.2925V20.7925H0.285706V21.2925H0.785706ZM1.20941 24.1729L0.725679 24.2994L0.726602 24.3028L1.20941 24.1729ZM2.92221 27.1804L3.29185 26.8437L3.29115 26.8429L2.92221 27.1804ZM6.5764 29.5426L6.38697 30.0053L6.38814 30.0058L6.5764 29.5426ZM14.4234 30.4046L14.4653 30.9028L14.4712 30.9023L14.4234 30.4046ZM16.7095 30.0018L16.8307 30.4869L16.8321 30.4866L16.7095 30.0018ZM19.1812 29.0975L18.9681 28.645L18.9615 28.6483L19.1812 29.0975ZM21.4649 27.5066L21.1205 27.1441L21.117 27.1474L21.4649 27.5066ZM23.1466 25.0325L23.6035 25.2355L23.6054 25.2312L23.1466 25.0325ZM23.1741 18.3804L22.7207 18.5915L22.7262 18.6026L23.1741 18.3804ZM21.5606 16.2678L21.2394 16.651L21.2424 16.6535L21.5606 16.2678ZM19.2266 14.9254L19.4039 14.4579L19.4018 14.4571L19.2266 14.9254ZM16.457 14.0846L16.3394 14.5706L16.3412 14.5711L16.457 14.0846ZM9.63214 12.4337L9.49791 12.9153L9.5062 12.9176L9.51457 12.9197L9.63214 12.4337ZM8.67939 12.1652L8.53858 12.645L8.54279 12.6462L8.67939 12.1652ZM7.7015 11.7059L7.41355 12.1147L7.41943 12.1188L7.42543 12.1228L7.7015 11.7059ZM6.96061 10.8781L7.39824 10.636L7.39279 10.6267L6.96061 10.8781ZM7.12579 8.00366L7.52884 8.29954L7.53413 8.29234L7.53916 8.28495L7.12579 8.00366ZM8.26406 6.98624L8.03154 6.54352L8.02435 6.54745L8.26406 6.98624ZM9.84997 6.4269L9.75728 5.93554L9.75288 5.93642L9.84997 6.4269ZM14.5718 6.73895L14.7723 6.28088L14.7691 6.27951L14.5718 6.73895ZM16.2607 7.86942L15.8878 8.20256L15.8887 8.20349L16.2607 7.86942ZM17.0195 9.22716L17.5055 9.10977L17.5055 9.10955L17.0195 9.22716ZM17.2781 10.4L16.7865 10.4914L16.8624 10.9H17.2781V10.4ZM22.8856 10.4V10.9H23.3856V10.4H22.8856ZM22.3853 7.58327L22.8617 7.43127L22.8604 7.42741L22.3853 7.58327ZM20.6318 4.68645L20.9978 4.34578L20.9964 4.34425L20.6318 4.68645ZM17.2781 2.42081L17.4783 1.96266L17.4774 1.96225L17.2781 2.42081ZM8.03425 1.92387L8.15499 2.40908L8.15619 2.40877L8.03425 1.92387ZM5.14967 3.01077L4.91028 2.57174L4.90382 2.57539L5.14967 3.01077ZM3.17835 4.59107L2.79831 4.26614L2.79657 4.2682L3.17835 4.59107ZM1.98981 6.4269L2.44442 6.63505L2.44463 6.63458L1.98981 6.4269ZM1.38297 8.28863L0.892308 8.19195L0.890616 8.20152L1.38297 8.28863ZM1.97185 13.6348L2.41095 13.3956L2.41013 13.3941L1.97185 13.6348ZM3.95994 15.9063L3.67324 16.316L3.67426 16.3167L3.95994 15.9063ZM6.78586 17.2264L6.92594 16.7464L6.92314 16.7456L6.78586 17.2264ZM10.0941 18.0719L10.2055 17.5844L10.2048 17.5843L10.0941 18.0719ZM13.0996 18.7584L13.2203 18.2731L13.211 18.271L13.0996 18.7584ZM15.1344 19.2989L15.2711 18.818L15.2699 18.8176L15.1344 19.2989ZM16.7538 19.9301L16.991 19.4899L16.984 19.4862L16.7538 19.9301ZM17.8083 20.8321L18.2222 20.5516L18.2179 20.5452L18.2134 20.539L17.8083 20.8321ZM17.6419 23.9774L17.2448 23.6736L17.2419 23.6774L17.6419 23.9774ZM16.2906 25.0525L16.4949 25.5089L16.4995 25.5068L16.2906 25.0525ZM14.4078 25.5907L14.4764 26.086L14.4811 26.0853L14.4078 25.5907ZM9.24792 25.2645L9.43894 24.8024L9.43461 24.8006L9.24792 25.2645ZM7.45015 24.0928L7.07683 24.4254L7.07899 24.4278L7.45015 24.0928ZM51.0006 24.8041L50.5361 24.6189L50.5351 24.6215L51.0006 24.8041ZM51.7856 1.49995H52.2856V0.999948H51.7856V1.49995ZM45.9771 1.49995V0.999948H45.4771V1.49995H45.9771ZM44.6959 24.2413L44.3307 23.8998L44.3291 23.9016L44.6959 24.2413ZM38.5789 25.2842L38.4052 25.7531L38.4112 25.7552L38.5789 25.2842ZM37.0238 24.2832L37.3804 23.9328L37.3786 23.9309L37.0238 24.2832ZM35.9763 22.5715L35.5061 22.7415L35.5071 22.7442L35.9763 22.5715ZM35.6022 1.49995H36.1022V0.999948H35.6022V1.49995ZM29.7856 1.49995V0.999948H29.2856V1.49995H29.7856ZM29.7856 20.4565H29.2856V20.4646L29.2859 20.4727L29.7856 20.4565ZM30.3324 24.2087L29.8512 24.3446L29.8513 24.3447L30.3324 24.2087ZM31.914 27.1486L31.5357 27.4756L31.5369 27.477L31.914 27.1486ZM33.9469 28.8173L34.1951 28.3832L34.1903 28.3806L33.9469 28.8173ZM36.2307 29.8462L36.0721 30.3204L36.0775 30.3222L36.2307 29.8462ZM38.503 30.3624L38.4426 30.8588L38.4444 30.859L38.503 30.3624ZM45.2312 29.901L45.3683 30.3818L45.3691 30.3816L45.2312 29.901ZM48.764 28.0342L48.438 27.6551L48.4352 27.6575L48.764 28.0342ZM59.7856 30.4999H59.2856V30.9999H59.7856V30.4999ZM65.954 30.4999V30.9999H66.454V30.4999H65.954ZM59.7856 1.49995V0.999948H59.2856V1.49995H59.7856ZM80.7856 1.49995H81.2856V0.999948H80.7856V1.49995ZM80.7856 6.54875V7.04875H81.2856V6.54875H80.7856ZM65.954 6.54875V6.04875H65.454V6.54875H65.954ZM65.954 13.5228H65.454V14.0228H65.954V13.5228ZM78.9362 13.5228H79.4362V13.0228H78.9362V13.5228ZM78.9362 18.4386V18.9386H79.4362V18.4386H78.9362ZM65.954 18.4386V17.9386H65.454V18.4386H65.954ZM92.954 30.4999V30.9999H93.454V30.4999H92.954ZM86.7856 30.4999H86.2856V30.9999H86.7856V30.4999ZM92.954 18.4386V17.9386H92.454V18.4386H92.954ZM105.937 18.4386V18.9386H106.437V18.4386H105.937ZM105.937 13.5228H106.437V13.0228H105.937V13.5228ZM92.954 13.5228H92.454V14.0228H92.954V13.5228ZM92.954 6.54875V6.04875H92.454V6.54875H92.954ZM107.786 6.54875V7.04875H108.286V6.54875H107.786ZM107.786 1.49995H108.286V0.999948H107.786V1.49995ZM86.7856 1.49995V0.999948H86.2856V1.49995H86.7856ZM109.786 30.4999L109.298 30.3907L109.162 30.9999H109.786V30.4999ZM116.288 30.4999V30.9999H116.688L116.776 30.6093L116.288 30.4999ZM116.278 1.49995V0.999948H115.878L115.79 1.39072L116.278 1.49995ZM122.786 1.49995L123.274 1.60927L123.41 0.999948H122.786V1.49995ZM126.972 1H141.367V0H126.972V1ZM127.472 1.6265V0.5H126.472V1.6265H127.472ZM130.402 1.1265H126.972V2.1265H130.402V1.1265ZM140.164 16.6359L130.829 1.3657L129.976 1.8873L139.311 17.1575L140.164 16.6359ZM131.444 29.6608L140.148 17.1828L139.328 16.6107L130.624 29.0886L131.444 29.6608ZM126.786 29.8747H131.034V28.8747H126.786V29.8747ZM127.286 30.5V29.3747H126.286V30.5H127.286ZM137.937 30H126.786V31H137.937V30ZM137.437 29.3747V30.5H138.437V29.3747H137.437ZM132.608 29.8747H137.937V28.8747H132.608V29.8747ZM140.186 17.7662L132.199 29.0864L133.016 29.663L141.003 18.3427L140.186 17.7662ZM148.108 29.1093L141.019 17.7891L140.171 18.3198L147.26 29.6401L148.108 29.1093ZM143.033 29.8747H147.684V28.8747H143.033V29.8747ZM143.533 30.5V29.3747H142.533V30.5H143.533ZM157.786 30H143.033V31H157.786V30ZM157.286 29.3747V30.5H158.286V29.3747H157.286ZM152.961 29.8747H157.786V28.8747H152.961V29.8747ZM142.74 14.54L152.542 29.6468L153.381 29.1026L143.579 13.9957L142.74 14.54ZM151.422 1.34361L142.748 13.9849L143.572 14.5507L152.246 1.90939L151.422 1.34361ZM156.123 1.1265H151.834V2.1265H156.123V1.1265ZM155.623 0.5V1.6265H156.623V0.5H155.623ZM145.197 1H156.123V0H145.197V1ZM145.697 1.6265V0.5H144.697V1.6265H145.697ZM150.295 1.1265H145.197V2.1265H150.295V1.1265ZM142.746 13.3583L150.705 1.91195L149.884 1.34105L141.925 12.7874L142.746 13.3583ZM135.186 1.8796L141.904 13.326L142.767 12.8198L136.048 1.3734L135.186 1.8796ZM141.367 1.1265H135.617V2.1265H141.367V1.1265ZM140.867 0.5V1.6265H141.867V0.5H140.867ZM5.90285 21.2925C5.90285 21.7293 5.97504 22.2258 6.13163 22.7726L7.09299 22.4973C6.95753 22.0243 6.90285 21.6212 6.90285 21.2925H5.90285ZM0.785706 21.7925H6.40285V20.7925H0.785706V21.7925ZM1.69314 24.0463C1.41816 22.9951 1.28571 22.0804 1.28571 21.2925H0.285706C0.285706 22.1886 0.435724 23.1909 0.725692 24.2994L1.69314 24.0463ZM3.29115 26.8429C2.4877 25.9645 1.95712 25.027 1.69223 24.0429L0.726602 24.3028C1.03862 25.462 1.65709 26.538 2.55326 27.5178L3.29115 26.8429ZM6.76583 29.0799C5.23187 28.4519 4.08274 27.712 3.29185 26.8437L2.55256 27.5171C3.47567 28.5305 4.76825 29.3427 6.38697 30.0053L6.76583 29.0799ZM12.7489 29.9999C10.2396 29.9999 8.25307 29.6843 6.76466 29.0794L6.38814 30.0058C8.04045 30.6773 10.169 30.9999 12.7489 30.9999V29.9999ZM14.3815 29.9063C13.6813 29.9652 13.153 29.9999 12.7489 29.9999V30.9999C13.1994 30.9999 13.7651 30.9617 14.4653 30.9028L14.3815 29.9063ZM16.5883 29.5168C15.7906 29.7161 15.0599 29.8411 14.3756 29.9069L14.4712 30.9023C15.2088 30.8314 15.9887 30.6974 16.8307 30.4869L16.5883 29.5168ZM18.9615 28.6483C18.1685 29.0361 17.3706 29.319 16.587 29.5171L16.8321 30.4866C17.6787 30.2725 18.5421 29.9666 19.4008 29.5466L18.9615 28.6483ZM21.117 27.1474C20.4663 27.7776 19.7537 28.2752 18.9682 28.6451L19.3941 29.5498C20.2843 29.1307 21.087 28.5685 21.8127 27.8657L21.117 27.1474ZM22.6896 24.8295C22.2734 25.7663 21.7609 26.5356 21.1205 27.1441L21.8093 27.869C22.5644 27.1516 23.146 26.2652 23.6035 25.2355L22.6896 24.8295ZM23.2857 21.4833C23.2857 22.8197 23.0789 23.9308 22.6877 24.8338L23.6054 25.2312C24.064 24.1724 24.2857 22.9189 24.2857 21.4833H23.2857ZM22.7262 18.6026C23.0967 19.3496 23.2857 20.3067 23.2857 21.4833H24.2857C24.2857 20.2082 24.0821 19.0858 23.622 18.1582L22.7262 18.6026ZM21.2424 16.6535C21.8651 17.1674 22.3578 17.8119 22.7208 18.5915L23.6274 18.1693C23.2052 17.2627 22.6231 16.4964 21.8789 15.8822L21.2424 16.6535ZM19.0494 15.3929C19.885 15.7097 20.6154 16.1279 21.2394 16.651L21.8818 15.8847C21.1629 15.282 20.3326 14.81 19.4039 14.4579L19.0494 15.3929ZM16.3412 14.5711C17.2768 14.7937 18.1834 15.0691 19.0515 15.3937L19.4018 14.4571C18.4937 14.1175 17.5474 13.8301 16.5727 13.5982L16.3412 14.5711ZM9.51457 12.9197L16.3394 14.5706L16.5745 13.5986L9.7497 11.9477L9.51457 12.9197ZM8.54279 12.6462C8.89153 12.7452 9.21794 12.8373 9.49791 12.9153L9.76636 11.952C9.48856 11.8746 9.16386 11.783 8.81598 11.6842L8.54279 12.6462ZM7.42543 12.1228C7.77145 12.352 8.13388 12.5262 8.53859 12.645L8.82019 11.6854C8.51871 11.5969 8.24677 11.4673 7.97758 11.2891L7.42543 12.1228ZM6.52309 11.1201C6.75261 11.5351 7.0633 11.868 7.41355 12.1147L7.98946 11.2972C7.75801 11.1341 7.55163 10.9136 7.39813 10.6361L6.52309 11.1201ZM6.17215 9.55923C6.17215 10.1467 6.26914 10.6839 6.52844 11.1296L7.39279 10.6267C7.25471 10.3893 7.17215 10.048 7.17215 9.55923H6.17215ZM6.72273 7.70778C6.33438 8.2368 6.17215 8.86131 6.17215 9.55923H7.17215C7.17215 9.02071 7.29479 8.61838 7.52884 8.29954L6.72273 7.70778ZM8.02435 6.54745C7.49428 6.83702 7.04621 7.23183 6.71241 7.72238L7.53916 8.28495C7.77749 7.93471 8.10263 7.64417 8.50377 7.42504L8.02435 6.54745ZM9.75288 5.93642C9.11468 6.06276 8.54978 6.27141 8.03157 6.54358L8.49654 7.4289C8.93347 7.19943 9.4075 7.0242 9.94707 6.91738L9.75288 5.93642ZM11.5424 5.75615C10.9609 5.75615 10.3621 5.82147 9.75728 5.93556L9.94267 6.91823C10.4989 6.8133 11.0347 6.75615 11.5424 6.75615V5.75615ZM14.7691 6.27951C13.9388 5.92305 12.8505 5.75615 11.5424 5.75615V6.75615C12.7814 6.75615 13.7182 6.91662 14.3746 7.1984L14.7691 6.27951ZM16.6335 7.53628C16.178 7.02641 15.5376 6.61583 14.7723 6.28089L14.3714 7.19701C15.0591 7.49797 15.5606 7.83632 15.8878 8.20256L16.6335 7.53628ZM17.5055 9.10955C17.3684 8.5429 17.0658 8.01764 16.6327 7.53535L15.8887 8.20349C16.236 8.59024 16.4433 8.97171 16.5336 9.34477L17.5055 9.10955ZM17.7696 10.3086C17.711 9.99338 17.6213 9.58913 17.5055 9.10977L16.5335 9.34455C16.6475 9.81666 16.7326 10.2014 16.7865 10.4914L17.7696 10.3086ZM22.8856 9.90002H17.2781V10.9H22.8856V9.90002ZM21.909 7.73526C22.2273 8.73298 22.3856 9.62474 22.3856 10.4H23.3856C23.3856 9.49372 23.2016 8.49666 22.8616 7.43128L21.909 7.73526ZM20.2658 5.02712C21.0546 5.87443 21.5938 6.77472 21.9102 7.73913L22.8604 7.42741C22.4945 6.31223 21.8752 5.28837 20.9978 4.34578L20.2658 5.02712ZM17.0778 2.87896C18.4346 3.47196 19.4842 4.19445 20.2673 5.02865L20.9964 4.34425C20.1037 3.39326 18.9343 2.59904 17.4783 1.96266L17.0778 2.87896ZM11.9733 1.99995C14.0512 1.99995 15.7519 2.30262 17.0787 2.87936L17.4774 1.96225C15.9867 1.31432 14.1397 0.999948 11.9733 0.999948V1.99995ZM8.15619 2.40877C9.22584 2.13978 10.4951 1.99995 11.9733 1.99995V0.999948C10.4353 0.999948 9.08089 1.14509 7.9123 1.43897L8.15619 2.40877ZM5.38904 3.44975C6.15179 3.03384 7.06845 2.67946 8.15499 2.40908L7.91351 1.43867C6.75702 1.72646 5.75861 2.10923 4.91031 2.57179L5.38904 3.44975ZM3.55838 4.91599C4.02868 4.36593 4.62971 3.87859 5.39553 3.44615L4.90382 2.57539C4.0514 3.05674 3.35497 3.61509 2.79832 4.26614L3.55838 4.91599ZM2.44463 6.63458C2.70909 6.05544 3.08132 5.48011 3.56013 4.91393L2.79657 4.2682C2.26757 4.89372 1.84265 5.54542 1.53498 6.21921L2.44463 6.63458ZM1.87354 8.3853C1.98664 7.81132 2.17181 7.23045 2.44442 6.63505L1.53519 6.21874C1.23089 6.88335 1.02108 7.53893 0.892401 8.19197L1.87354 8.3853ZM1.70941 9.97845C1.70941 9.50739 1.77038 8.96885 1.87532 8.37575L0.890616 8.20152C0.780115 8.82602 0.709415 9.42738 0.709415 9.97845H1.70941ZM2.41013 13.3941C1.95807 12.5709 1.70941 11.4334 1.70941 9.97845H0.709415C0.709415 11.5334 0.973044 12.8546 1.53358 13.8755L2.41013 13.3941ZM4.24663 15.4967C3.49545 14.971 2.88796 14.2714 2.41095 13.3956L1.53276 13.874C2.07552 14.8705 2.78224 15.6924 3.67324 16.316L4.24663 15.4967ZM6.92314 16.7456C5.90886 16.456 5.01639 16.0326 4.24561 15.496L3.67426 16.3167C4.54087 16.92 5.53474 17.3891 6.64859 17.7072L6.92314 16.7456ZM10.2048 17.5843C9.08032 17.3291 7.9787 17.0536 6.92593 16.7464L6.64579 17.7064C7.72354 18.0209 8.8458 18.3013 9.98348 18.5595L10.2048 17.5843ZM13.211 18.271L10.2055 17.5844L9.9828 18.5593L12.9883 19.2458L13.211 18.271ZM15.2699 18.8176C14.6387 18.6398 13.9598 18.4571 13.2203 18.2732L12.9789 19.2436C13.7069 19.4247 14.3757 19.6047 14.9988 19.7802L15.2699 18.8176ZM16.984 19.4862C16.4888 19.2294 15.9222 19.0031 15.2711 18.818L14.9976 19.7798C15.589 19.948 16.0924 20.1503 16.5236 20.3739L16.984 19.4862ZM18.2134 20.539C17.902 20.1088 17.5038 19.7662 16.991 19.4899L16.5167 20.3703C16.9087 20.5815 17.1879 20.8277 17.4032 21.1252L18.2134 20.539ZM18.6698 22.1722C18.6698 21.5652 18.5357 21.0143 18.2222 20.5516L17.3944 21.1126C17.5692 21.3706 17.6698 21.7122 17.6698 22.1722H18.6698ZM18.0391 24.2812C18.4757 23.7103 18.6698 22.9959 18.6698 22.1722H17.6698C17.6698 22.8392 17.5143 23.3213 17.2448 23.6736L18.0391 24.2812ZM16.4995 25.5068C17.1233 25.2199 17.6419 24.8107 18.0419 24.2774L17.2419 23.6774C16.9477 24.0696 16.5639 24.3765 16.0817 24.5983L16.4995 25.5068ZM14.4811 26.0853C15.2151 25.9766 15.8795 25.7843 16.4949 25.5089L16.0863 24.5961C15.5598 24.8318 14.9842 24.9999 14.3346 25.0961L14.4811 26.0853ZM12.3264 26.2402C13.0561 26.2402 13.7674 26.184 14.4764 26.0859L14.3393 25.0954C13.6694 25.1881 13.0042 25.2402 12.3264 25.2402V26.2402ZM9.05692 25.7266C9.91372 26.0807 11.0176 26.2402 12.3264 26.2402V25.2402C11.0834 25.2402 10.1262 25.0865 9.43893 24.8024L9.05692 25.7266ZM7.07899 24.4278C7.56053 24.9613 8.22115 25.3902 9.06124 25.7283L9.43461 24.8006C8.69476 24.5029 8.17523 24.1499 7.82131 23.7578L7.07899 24.4278ZM6.13022 22.7676C6.29646 23.3719 6.63051 23.9245 7.07684 24.4254L7.82346 23.7602C7.4535 23.3449 7.21063 22.9249 7.0944 22.5023L6.13022 22.7676ZM51.2856 20.1081C51.2856 21.8877 51.0285 23.3844 50.5361 24.6189L51.465 24.9894C52.0155 23.609 52.2856 21.9804 52.2856 20.1081H51.2856ZM51.2856 1.49995V20.1081H52.2856V1.49995H51.2856ZM45.9771 1.99995H51.7856V0.999948H45.9771V1.99995ZM46.4771 20.3435V1.49995H45.4771V20.3435H46.4771ZM45.0612 24.5828C46.0269 23.5497 46.4771 22.1178 46.4771 20.3435H45.4771C45.4771 21.9531 45.0709 23.1081 44.3307 23.8998L45.0612 24.5828ZM40.4645 26.1117C42.492 26.1117 44.0788 25.6436 45.0628 24.581L44.3291 23.9016C43.621 24.6662 42.3737 25.1117 40.4645 25.1117V26.1117ZM38.4112 25.7552C39.0614 25.9869 39.7374 26.1117 40.4645 26.1117V25.1117C39.8563 25.1117 39.2936 25.008 38.7467 24.8132L38.4112 25.7552ZM36.6672 24.6337C37.1599 25.1351 37.7408 25.5068 38.4052 25.7531L38.7527 24.8154C38.2222 24.6188 37.7672 24.3264 37.3804 23.9328L36.6672 24.6337ZM35.5071 22.7442C35.7816 23.49 36.1654 24.1284 36.669 24.6356L37.3786 23.9309C36.9935 23.5431 36.6797 23.0349 36.4455 22.3987L35.5071 22.7442ZM35.1022 20.0766C35.1022 21.0861 35.2313 21.9813 35.5061 22.7415L36.4465 22.4015C36.2217 21.7797 36.1022 21.0062 36.1022 20.0766H35.1022ZM35.1022 1.49995V20.0766H36.1022V1.49995H35.1022ZM29.7856 1.99995H35.6022V0.999948H29.7856V1.99995ZM30.2856 20.4565V1.49995H29.2856V20.4565H30.2856ZM30.8136 24.0727C30.5107 23.0007 30.3291 21.7877 30.2854 20.4403L29.2859 20.4727C29.3319 21.8894 29.5233 23.184 29.8512 24.3446L30.8136 24.0727ZM32.2923 26.8217C31.6076 26.0294 31.1077 25.1133 30.8135 24.0727L29.8513 24.3447C30.1856 25.5274 30.7562 26.5736 31.5357 27.4756L32.2923 26.8217ZM34.1903 28.3806C33.4935 27.9922 32.8635 27.4776 32.2911 26.8203L31.5369 27.477C32.1802 28.2157 32.8992 28.8058 33.7035 29.254L34.1903 28.3806ZM36.3893 29.3721C35.6415 29.122 34.9037 28.7885 34.1951 28.3833L33.6987 29.2513C34.4612 29.6874 35.2589 30.0485 36.0721 30.3204L36.3893 29.3721ZM38.5634 29.8661C37.8536 29.7798 37.1275 29.6096 36.3838 29.3703L36.0775 30.3222C36.8694 30.577 37.6582 30.7634 38.4426 30.8588L38.5634 29.8661ZM40.575 29.9999C39.9702 29.9999 39.2988 29.9529 38.5616 29.8659L38.4444 30.859C39.2082 30.9491 39.9204 30.9999 40.575 30.9999V29.9999ZM45.0941 29.4202C43.7637 29.7995 42.2577 29.9999 40.575 29.9999V30.9999C42.3363 30.9999 43.9361 30.7902 45.3683 30.3818L45.0941 29.4202ZM48.4352 27.6575C47.5274 28.4499 46.4125 29.042 45.0934 29.4204L45.3691 30.3816C46.8125 29.9676 48.0621 29.3105 49.0928 28.4109L48.4352 27.6575ZM50.5351 24.6215C50.0484 25.8621 49.3484 26.8722 48.438 27.6551L49.09 28.4134C50.1364 27.5136 50.926 26.3633 51.466 24.9867L50.5351 24.6215ZM59.7856 30.9999H65.954V29.9999H59.7856V30.9999ZM59.2856 1.49995V30.4999H60.2856V1.49995H59.2856ZM80.7856 0.999948H59.7856V1.99995H80.7856V0.999948ZM81.2856 6.54875V1.49995H80.2856V6.54875H81.2856ZM65.954 7.04875H80.7856V6.04875H65.954V7.04875ZM66.454 13.5228V6.54875H65.454V13.5228H66.454ZM78.9362 13.0228H65.954V14.0228H78.9362V13.0228ZM79.4362 18.4386V13.5228H78.4362V18.4386H79.4362ZM65.954 18.9386H78.9362V17.9386H65.954V18.9386ZM66.454 30.4999V18.4386H65.454V30.4999H66.454ZM92.954 29.9999H86.7856V30.9999H92.954V29.9999ZM92.454 18.4386V30.4999H93.454V18.4386H92.454ZM105.937 17.9386H92.954V18.9386H105.937V17.9386ZM105.437 13.5228V18.4386H106.437V13.5228H105.437ZM92.954 14.0228H105.937V13.0228H92.954V14.0228ZM92.454 6.54875V13.5228H93.454V6.54875H92.454ZM107.786 6.04875H92.954V7.04875H107.786V6.04875ZM107.286 1.49995V6.54875H108.286V1.49995H107.286ZM86.7856 1.99995H107.786V0.999948H86.7856V1.99995ZM87.2856 30.4999V1.49995H86.2856V30.4999H87.2856ZM109.786 30.9999H116.288V29.9999H109.786V30.9999ZM115.79 1.39072L109.298 30.3907L110.274 30.6092L116.766 1.60918L115.79 1.39072ZM122.786 0.999948H116.278V1.99995H122.786V0.999948ZM116.776 30.6093L123.274 1.60927L122.298 1.39062L115.8 30.3906L116.776 30.6093Z" fill="white"/>
</svg>
